<?xml version="1.0" standalone="no"?>
<!DOCTYPE svg PUBLIC "-//W3C//DTD SVG 20010904//EN"
 "http://www.w3.org/TR/2001/REC-SVG-20010904/DTD/svg10.dtd">
<svg version="1.0" xmlns="http://www.w3.org/2000/svg"
 width="778.000000pt" height="778.000000pt" viewBox="0 0 778.000000 778.000000"
 preserveAspectRatio="xMidYMid meet">
<metadata>
Created by potrace 1.14, written by Peter Selinger 2001-2017
</metadata>
<g transform="translate(0.000000,778.000000) scale(0.100000,-0.100000)"
fill="#000000" stroke="none">
<path d="M3658 7776 c-1 -2 -41 -6 -88 -10 -47 -3 -121 -10 -165 -16 -44 -6
-96 -13 -115 -16 -75 -10 -300 -57 -405 -85 -112 -31 -356 -110 -410 -134 -16
-7 -75 -32 -130 -55 -209 -87 -484 -241 -699 -393 -318 -224 -619 -516 -854
-827 -40 -52 -76 -100 -82 -107 -13 -15 -139 -210 -160 -248 -10 -16 -37 -64
-60 -105 -60 -103 -160 -314 -210 -440 -41 -103 -136 -383 -144 -424 -3 -11
-16 -68 -30 -126 -14 -58 -28 -123 -32 -145 -3 -22 -8 -43 -9 -46 -2 -3 -7
-28 -11 -55 -3 -27 -8 -56 -9 -64 -2 -9 -6 -43 -10 -75 -4 -33 -9 -69 -11 -80
-25 -135 -25 -700 1 -878 39 -276 43 -297 90 -497 52 -227 160 -521 280 -765
99 -201 141 -275 248 -435 189 -284 415 -546 654 -760 56 -49 51 -45 176 -147
449 -363 1058 -649 1627 -762 30 -6 66 -14 80 -16 21 -5 146 -24 255 -40 185
-26 729 -27 896 0 13 2 49 6 79 10 330 37 784 170 1125 329 50 24 92 43 95 44
4 0 155 84 252 140 76 44 247 159 348 236 647 489 1122 1159 1369 1931 23 72
43 139 45 150 2 11 12 49 21 85 9 36 19 74 21 85 2 11 6 31 9 45 19 89 33 163
39 215 3 22 10 72 15 110 20 143 26 256 25 490 0 246 -5 331 -24 470 -6 44
-13 98 -15 120 -3 22 -7 51 -10 65 -48 243 -82 377 -138 550 -141 428 -347
816 -619 1168 -86 110 -106 134 -198 236 -442 491 -1029 872 -1669 1082 -131
43 -418 117 -496 129 -22 3 -62 9 -90 15 -27 5 -70 11 -95 14 -106 12 -147 17
-180 22 -39 5 -576 14 -582 10z"/>
</g>
</svg>
